<svg width="100%" height="100%" viewBox="0 0 1440 864" fill="none" xmlns="http://www.w3.org/2000/svg" preserveAspectRatio="none">
<g clip-path="url(#clip0_2368_10652)">
<mask id="mask0_2368_10652" style="mask-type:luminance" maskUnits="userSpaceOnUse" x="0" y="0" width="100%" height="100%">
<path d="M1440 0H0V864H1440V0Z" fill="white"/>
</mask>
<g mask="url(#mask0_2368_10652)">
<path d="M1440 0H0V864H1440V0Z" fill="#076CD9"/>
<path d="M0 530.648C104.312 522.264 217.648 531.713 301.316 468.857C383.368 407.215 393.4 292.411 439.3 200.621C487.293 104.645 572.783 24.2139 577.273 -82.9991C582.097 -198.18 525.237 -304.521 464.56 -402.543C395.031 -514.867 326.978 -645.285 202.259 -688.829C76.48 -732.743 -60.194 -676.482 -184.763 -629.244C-301.827 -584.853 -425.313 -532.133 -491.391 -425.793C-554.557 -324.14 -503.687 -193.063 -528.546 -75.9931C-555.959 53.1009 -685.215 168.77 -644.286 294.235C-603.813 418.301 -456.655 474.979 -334.141 519.934C-227.362 559.115 -113.375 539.761 0 530.648Z" fill="#0656AE"/>
<path d="M1440 1354.15C1535.3 1342.67 1639.3 1351.02 1715.3 1292.38C1789.51 1235.12 1790.99 1126.72 1839.03 1046.23C1895.19 952.166 2037.78 888.723 2020.86 780.484C2003.89 671.829 1842.59 660.472 1766.37 581.197C1696.02 508.028 1683.52 386.299 1594.68 337.213C1499.96 284.882 1376.13 266.266 1277.68 311.197C1180.88 355.382 1155.81 477.756 1095.17 565.201C1042.19 641.587 971.968 704.072 943.8 792.657C912.16 892.159 894.918 999.143 925.431 1099C958.054 1205.75 1018.47 1314.7 1118.48 1364.29C1216.53 1412.91 1331.34 1367.25 1440 1354.15Z" fill="#1582F8"/>
</g>
</g>
<defs>
<clipPath id="clip0_2368_10652">
<rect width="100%" height="100%" fill="white"/>
</clipPath>
</defs>
</svg>
